<svg width="30" height="68" viewBox="0 0 30 68" fill="none" xmlns="http://www.w3.org/2000/svg">
<path d="M5 42.0736V43.7142H25V42.0736C25 40.5632 23.8542 39.3392 21.5625 38.4017C19.2708 37.4122 17.0833 36.9174 15 36.9174C12.9167 36.9174 10.7292 37.4122 8.4375 38.4017C6.14583 39.3392 5 40.5632 5 42.0736ZM18.5156 32.2299C19.5052 31.2403 20 30.0684 20 28.7142C20 27.3601 19.5052 26.1882 18.5156 25.1986C17.526 24.209 16.3542 23.7142 15 23.7142C13.6458 23.7142 12.474 24.209 11.4844 25.1986C10.4948 26.1882 10 27.3601 10 28.7142C10 30.0684 10.4948 31.2403 11.4844 32.2299C12.474 33.2194 13.6458 33.7142 15 33.7142C16.3542 33.7142 17.526 33.2194 18.5156 32.2299ZM0 22.0736C0 21.1361 0.3125 20.3549 0.9375 19.7299C1.61458 19.0528 2.42188 18.7142 3.35938 18.7142H26.6406C27.526 18.7142 28.3073 19.0528 28.9844 19.7299C29.6615 20.4069 30 21.1882 30 22.0736V45.3549C30 46.2403 29.6615 47.0215 28.9844 47.6986C28.3073 48.3757 27.526 48.7142 26.6406 48.7142H3.35938C2.42188 48.7142 1.61458 48.4017 0.9375 47.7767C0.3125 47.0997 0 46.2924 0 45.3549V22.0736Z" fill="url(#paint0_linear_516_1133)"/>
<defs>
<linearGradient id="paint0_linear_516_1133" x1="-5" y1="53.7142" x2="33.806" y2="53.7142" gradientUnits="userSpaceOnUse">
<stop stop-color="#009694"/>
<stop offset="1" stop-color="#65F53D"/>
</linearGradient>
</defs>
</svg>
